<svg xmlns="http://www.w3.org/2000/svg" width="16" height="16" viewBox="0 0 16 16">
  <path fill="#6C707E" fill-rule="evenodd" d="M 3.140625 10.636719 L 6.285156 8.871094 L 6.339844 8.71875 L 6.285156 8.632812 L 6.132812 8.632812 L 5.605469 8.601562 L 3.808594 8.550781 L 2.25 8.488281 L 0.738281 8.40625 L 0.355469 8.324219 L 0 7.855469 L 0.0351562 7.621094 L 0.355469 7.40625 L 0.8125 7.449219 L 1.828125 7.515625 L 3.347656 7.621094 L 4.449219 7.6875 L 6.078125 7.855469 L 6.339844 7.855469 L 6.375 7.75 L 6.285156 7.6875 L 6.21875 7.621094 L 4.644531 6.558594 L 2.945312 5.433594 L 2.054688 4.785156 L 1.570312 4.457031 L 1.328125 4.148438 L 1.222656 3.476562 L 1.660156 2.996094 L 2.246094 3.035156 L 2.398438 3.074219 L 2.992188 3.535156 L 4.265625 4.515625 L 5.925781 5.738281 L 6.167969 5.941406 L 6.265625 5.875 L 6.277344 5.824219 L 6.167969 5.640625 L 5.265625 4.011719 L 4.300781 2.351562 L 3.871094 1.664062 L 3.757812 1.25 C 3.714844 1.09375 3.691406 0.929688 3.691406 0.765625 L 4.1875 0.0898438 L 4.464844 0 L 5.128906 0.0898438 L 5.40625 0.332031 L 5.820312 1.273438 L 6.488281 2.761719 L 7.527344 4.78125 L 7.828125 5.378906 L 7.992188 5.933594 L 8.050781 6.105469 L 8.15625 6.105469 L 8.15625 6.007812 L 8.242188 4.871094 L 8.402344 3.472656 L 8.554688 1.675781 L 8.609375 1.167969 L 8.859375 0.5625 L 9.355469 0.234375 L 9.746094 0.421875 L 10.066406 0.878906 L 10.019531 1.175781 L 9.832031 2.40625 L 9.457031 4.34375 L 9.214844 5.636719 L 9.355469 5.636719 L 9.519531 5.476562 L 10.175781 4.605469 L 11.277344 3.230469 L 11.761719 2.683594 L 12.328125 2.082031 L 12.695312 1.792969 L 13.382812 1.792969 L 13.890625 2.546875 L 13.664062 3.324219 L 12.953125 4.222656 L 12.367188 4.984375 L 11.523438 6.117188 L 10.996094 7.023438 L 11.046875 7.097656 L 11.171875 7.082031 L 13.074219 6.679688 L 14.105469 6.492188 L 15.332031 6.28125 L 15.886719 6.539062 L 15.949219 6.804688 L 15.730469 7.34375 L 14.414062 7.664062 L 12.875 7.972656 L 10.585938 8.515625 L 10.554688 8.535156 L 10.589844 8.578125 L 11.621094 8.675781 L 12.0625 8.699219 L 13.144531 8.699219 L 15.15625 8.847656 L 15.683594 9.195312 L 16 9.621094 L 15.949219 9.945312 L 15.136719 10.359375 L 14.042969 10.097656 L 11.492188 9.492188 L 10.617188 9.273438 L 10.496094 9.273438 L 10.496094 9.347656 L 11.222656 10.058594 L 12.5625 11.265625 L 14.234375 12.816406 L 14.320312 13.203125 L 14.105469 13.507812 L 13.878906 13.472656 L 12.40625 12.371094 L 11.839844 11.871094 L 10.554688 10.792969 L 10.46875 10.792969 L 10.46875 10.90625 L 10.765625 11.335938 L 12.328125 13.683594 L 12.410156 14.40625 L 12.296875 14.640625 L 11.894531 14.78125 L 11.449219 14.699219 L 10.53125 13.417969 L 9.589844 11.972656 L 8.824219 10.675781 L 8.734375 10.730469 L 8.285156 15.566406 L 8.074219 15.8125 L 7.585938 16 L 7.183594 15.691406 L 6.96875 15.195312 L 7.183594 14.210938 L 7.441406 12.929688 L 7.652344 11.90625 L 7.84375 10.640625 L 7.957031 10.21875 L 7.949219 10.191406 L 7.855469 10.203125 L 6.898438 11.515625 L 5.445312 13.480469 L 4.292969 14.707031 L 4.019531 14.816406 L 3.539062 14.570312 L 3.585938 14.128906 L 3.851562 13.738281 L 5.445312 11.714844 L 6.402344 10.457031 L 7.023438 9.734375 L 7.019531 9.628906 L 6.984375 9.628906 L 2.753906 12.375 L 2 12.46875 L 1.675781 12.167969 L 1.71875 11.667969 L 1.871094 11.507812 L 3.144531 10.632812 Z"/>
</svg>
